<svg xmlns="http://www.w3.org/2000/svg" xmlns:xlink="http://www.w3.org/1999/xlink">
    <symbol id="facebook" fill="#000000" viewBox="0 0 64 64" width="50px" height="50px">
        <path d="M48,7H16c-4.418,0-8,3.582-8,8v32c0,4.418,3.582,8,8,8h17V38h-6v-7h6v-5c0-7,4-11,10-11c3.133,0,5,1,5,1v6h-4 c-2.86,0-4,2.093-4,4v5h7l-1,7h-6v17h8c4.418,0,8-3.582,8-8V15C56,10.582,52.418,7,48,7z"/>
    </symbol>
    <symbol id="youtube" fill="#000000" viewBox="0 0 72 72" width="55px" height="60px">
        <path d="M61.115,18.856C63.666,21.503,64,25.709,64,36s-0.334,14.497-2.885,17.144C58.563,55.791,55.906,56,36,56	s-22.563-0.209-25.115-2.856C8.334,50.497,8,46.291,8,36s0.334-14.497,2.885-17.144S16.094,16,36,16S58.563,16.209,61.115,18.856z M31.464,44.476l13.603-8.044l-13.603-7.918V44.476z"/>
    </symbol>
    <symbol id="instagram" fill="#000000" viewBox="0 0 50 50" width="50px" height="50px">
        <path d="M 16 3 C 8.83 3 3 8.83 3 16 L 3 34 C 3 41.17 8.83 47 16 47 L 34 47 C 41.17 47 47 41.17 47 34 L 47 16 C 47 8.83 41.17 3 34 3 L 16 3 z M 37 11 C 38.1 11 39 11.9 39 13 C 39 14.1 38.1 15 37 15 C 35.9 15 35 14.1 35 13 C 35 11.9 35.9 11 37 11 z M 25 14 C 31.07 14 36 18.93 36 25 C 36 31.07 31.07 36 25 36 C 18.93 36 14 31.07 14 25 C 14 18.93 18.93 14 25 14 z M 25 16 C 20.04 16 16 20.04 16 25 C 16 29.96 20.04 34 25 34 C 29.96 34 34 29.96 34 25 C 34 20.04 29.96 16 25 16 z"/>/>
    </symbol>
    <symbol id="arrow" width="42" height="40" viewBox="0 0 42 40" fill="none">
      <path d="M24.9048 19.111C24.9606 19.1669 24.9885 19.231 24.9885 19.3036C24.9885 19.3761 24.9606 19.4403 24.9048 19.4961L21.0041 23.3968C20.9483 23.4526 20.8841 23.4805 20.8116 23.4805C20.7391 23.4805 20.6749 23.4526 20.6191 23.3968L16.7184 19.4961C16.6626 19.4403 16.6347 19.3761 16.6347 19.3036C16.6347 19.231 16.6626 19.1669 16.7184 19.111L17.1369 18.6925C17.1927 18.6367 17.2569 18.6088 17.3295 18.6088C17.402 18.6088 17.4662 18.6367 17.522 18.6925L20.8116 21.9821L24.1012 18.6925C24.157 18.6367 24.2212 18.6088 24.2937 18.6088C24.3663 18.6088 24.4305 18.6367 24.4863 18.6925L24.9048 19.111Z" fill="white"/> 
      <circle opacity="0.4" cx="20" cy="20" r="19.5" stroke="white"/>
    </symbol>
</svg>
